<svg width="225" height="43" viewBox="0 0 225 43" fill="none" xmlns="http://www.w3.org/2000/svg">
<path d="M37.3838 10.0066C39.4507 10.0066 41.0161 10.3719 42.0801 11.1013C43.1439 11.8308 43.9199 12.5903 44.4062 13.3806H45.2266V10.6453H50.8809V37.2742C50.8809 38.8245 50.4246 40.0556 49.5127 40.9675C48.6007 41.9099 47.3851 42.3816 45.8652 42.3816H30.7266V37.366H43.8584C44.7095 37.366 45.1357 36.9097 45.1357 35.9978V30.116H44.3145C44.0105 30.6021 43.585 31.1033 43.0381 31.6199C42.491 32.1062 41.7615 32.5169 40.8496 32.8513C39.9376 33.1857 38.7821 33.3533 37.3838 33.3533C35.5296 33.3532 33.8121 32.9125 32.2314 32.031C30.6811 31.1191 29.4345 29.8269 28.4922 28.155C27.5498 26.4527 27.0791 24.4158 27.0791 22.0447V21.3152C27.0791 18.9442 27.5499 16.9226 28.4922 15.2507C29.4345 13.5484 30.6811 12.2563 32.2314 11.3748C33.8121 10.4628 35.5296 10.0066 37.3838 10.0066ZM131.211 10.0066C133.278 10.0066 134.843 10.3719 135.907 11.1013C136.971 11.8308 137.747 12.5903 138.233 13.3806H139.054V10.6453H144.708V37.2742C144.708 38.8245 144.252 40.0556 143.34 40.9675C142.428 41.9099 141.212 42.3816 139.692 42.3816H124.554V37.366H137.686C138.537 37.366 138.963 36.9097 138.963 35.9978V30.116H138.142C137.838 30.6021 137.412 31.1033 136.865 31.6199C136.318 32.1062 135.589 32.5169 134.677 32.8513C133.765 33.1857 132.609 33.3533 131.211 33.3533C129.357 33.3532 127.639 32.9125 126.059 32.031C124.508 31.1191 123.262 29.8269 122.319 28.155C121.377 26.4527 120.906 24.4158 120.906 22.0447V21.3152C120.906 18.9442 121.377 16.9226 122.319 15.2507C123.262 13.5484 124.508 12.2563 126.059 11.3748C127.639 10.4628 129.357 10.0066 131.211 10.0066ZM106.389 10.0066C109.368 10.0066 111.724 10.7514 113.457 12.241C115.19 13.7304 116.056 15.8888 116.056 18.7156V27.1521C116.056 28.0638 116.482 28.5193 117.333 28.5193H119.156V33.2615H115.326C114.202 33.2615 113.274 32.9883 112.545 32.4412C111.815 31.8941 111.45 31.1645 111.45 30.2527V30.2068H110.584C110.462 30.5715 110.189 31.0579 109.764 31.6658C109.338 32.2433 108.669 32.7606 107.757 33.2166C106.845 33.6725 105.598 33.9001 104.018 33.9001C102.407 33.9001 100.963 33.6268 99.6865 33.0798C98.4098 32.5023 97.3908 31.6809 96.6309 30.6169C95.9014 29.5226 95.5371 28.2004 95.5371 26.6501C95.5371 25.0998 95.9013 23.8077 96.6309 22.7742C97.3908 21.7103 98.4244 20.9199 99.7314 20.4031C101.069 19.8559 102.59 19.5828 104.292 19.5828H110.493V18.3054C110.493 17.2416 110.158 16.3755 109.489 15.7068C108.82 15.0077 107.757 14.658 106.298 14.658C104.869 14.658 103.806 14.9923 103.106 15.6609C102.407 16.2992 101.951 17.1352 101.738 18.1687L96.4482 16.3904C96.813 15.2352 97.3913 14.1862 98.1816 13.2439C99.0024 12.2713 100.082 11.4962 101.419 10.9187C102.787 10.3108 104.443 10.0066 106.389 10.0066ZM176.191 10.0066C179.17 10.0066 181.526 10.7516 183.259 12.241C184.991 13.7304 185.858 15.8887 185.858 18.7156V27.1521C185.859 28.0637 186.284 28.5192 187.135 28.5193H188.959V33.2615H185.129C184.004 33.2615 183.077 32.9882 182.348 32.4412C181.618 31.8941 181.253 31.1645 181.253 30.2527V30.2068H180.387C180.265 30.5716 179.991 31.0578 179.565 31.6658C179.14 32.2433 178.471 32.7606 177.56 33.2166C176.648 33.6725 175.401 33.9001 173.82 33.9001C172.209 33.9001 170.765 33.627 169.488 33.0798C168.212 32.5023 167.194 31.6809 166.434 30.6169C165.704 29.5226 165.339 28.2004 165.339 26.6501C165.339 25.0998 165.704 23.8077 166.434 22.7742C167.194 21.7103 168.227 20.9198 169.534 20.4031C170.872 19.8559 172.392 19.5828 174.094 19.5828H180.295V18.3054C180.295 17.2416 179.961 16.3755 179.292 15.7068C178.623 15.0077 177.56 14.658 176.101 14.658C174.672 14.658 173.607 14.9921 172.908 15.6609C172.209 16.2992 171.753 17.1352 171.54 18.1687L166.251 16.3904C166.616 15.2353 167.193 14.1862 167.983 13.2439C168.804 12.2711 169.884 11.4963 171.222 10.9187C172.59 10.3108 174.246 10.0066 176.191 10.0066ZM14.0742 10.28C15.8372 10.2801 17.3726 10.6908 18.6797 11.5115C20.0171 12.3018 21.0507 13.4119 21.7803 14.8406C22.5097 16.2387 22.874 17.88 22.874 19.7644V33.2615H17.1289V20.2205C17.1289 18.5183 16.7036 17.2415 15.8525 16.3904C15.0318 15.5393 13.8461 15.1141 12.2959 15.114C10.5328 15.114 9.16416 15.7068 8.19141 16.8923C7.21882 18.0475 6.73242 19.6739 6.73242 21.7712V33.2615H0.987305V10.6453H6.6416V13.6091H7.46191C7.82666 12.8188 8.51069 12.0739 9.51367 11.3748C10.5168 10.6452 12.0375 10.28 14.0742 10.28ZM68.377 1.34351C72.6632 1.34351 75.9157 2.43801 78.1348 4.62671C80.3841 6.78496 81.5087 10.0068 81.5088 14.2927V20.3123C81.5087 24.5983 80.3842 27.8355 78.1348 30.0242C75.9157 32.1825 72.6632 33.2615 68.377 33.2615H55.2451V27.9724H59.4395V6.63257H55.2451V1.34351H68.377ZM91.541 33.2615H85.7959V10.6453H91.541V33.2615ZM163.754 15.6609H160.927C159.468 15.661 158.267 16.0563 157.325 16.8464C156.383 17.6064 155.911 18.792 155.911 20.4031V33.2615H150.166V10.6453H155.82V13.199H156.641C156.975 12.2871 157.522 11.6177 158.282 11.1921C159.073 10.7666 159.985 10.5544 161.019 10.5544H163.754V15.6609ZM217.418 10.28C218.816 10.28 220.078 10.5842 221.203 11.1921C222.358 11.7697 223.27 12.6668 223.938 13.8826C224.638 15.0681 224.987 16.5733 224.987 18.3972V33.2615H219.242V18.8074C219.242 17.5611 218.923 16.6341 218.284 16.0261C217.646 15.3878 216.749 15.0681 215.594 15.0681C214.287 15.0682 213.269 15.4936 212.539 16.3445C211.84 17.1652 211.49 18.351 211.49 19.9011V33.2615H205.745V18.8074C205.745 17.561 205.425 16.6341 204.787 16.0261C204.149 15.3878 203.252 15.0681 202.097 15.0681C200.79 15.0682 199.771 15.4936 199.042 16.3445C198.343 17.1652 197.993 18.351 197.993 19.9011V33.2615H192.248V10.6453H197.902V13.1072H198.723C199.118 12.3473 199.772 11.6943 200.684 11.1472C201.596 10.5696 202.797 10.28 204.286 10.28C205.897 10.2801 207.189 10.5997 208.162 11.238C209.135 11.846 209.879 12.652 210.396 13.655H211.217C211.734 12.6823 212.463 11.8764 213.405 11.238C214.348 10.5997 215.685 10.28 217.418 10.28ZM104.702 23.8689C103.638 23.8689 102.802 24.0966 102.194 24.5525C101.586 25.0084 101.282 25.6469 101.282 26.4675C101.282 27.2883 101.601 27.9576 102.239 28.4744C102.878 28.9911 103.806 29.2488 105.021 29.2488C106.632 29.2487 107.939 28.808 108.942 27.9265C109.976 27.0146 110.493 25.8143 110.493 24.325V23.8689H104.702ZM174.504 23.8689C173.44 23.869 172.604 24.0966 171.996 24.5525C171.388 25.0084 171.085 25.6469 171.085 26.4675C171.085 27.2883 171.404 27.9576 172.042 28.4744C172.68 28.991 173.608 29.2487 174.823 29.2488C176.434 29.2488 177.742 28.8081 178.745 27.9265C179.778 27.0146 180.295 25.8142 180.295 24.325V23.8689H174.504ZM39.0254 15.0222C37.2623 15.0222 35.7881 15.585 34.6025 16.7097C33.417 17.8041 32.8242 19.3848 32.8242 21.4519V21.908C32.8242 23.9446 33.417 25.5254 34.6025 26.6501C35.7881 27.7748 37.2623 28.3376 39.0254 28.3376C40.7884 28.3376 42.2627 27.7748 43.4482 26.6501C44.6338 25.5254 45.2266 23.9446 45.2266 21.908V21.4519C45.2266 19.3848 44.6338 17.8041 43.4482 16.7097C42.2931 15.5851 40.8188 15.0222 39.0254 15.0222ZM132.853 15.0222C131.089 15.0222 129.615 15.585 128.43 16.7097C127.244 17.8041 126.651 19.3848 126.651 21.4519V21.908C126.651 23.9446 127.244 25.5254 128.43 26.6501C129.615 27.7748 131.089 28.3376 132.853 28.3376C134.616 28.3376 136.09 27.7748 137.275 26.6501C138.461 25.5254 139.054 23.9446 139.054 21.908V21.4519C139.054 19.3848 138.461 17.8041 137.275 16.7097C136.12 15.5851 134.646 15.0222 132.853 15.0222ZM65.459 27.7898H68.4678C70.8996 27.7898 72.678 27.1515 73.8027 25.8748C74.9275 24.598 75.4902 22.8042 75.4902 20.4939V14.1111C75.4902 11.7704 74.9275 9.97657 73.8027 8.73022C72.678 7.45354 70.8996 6.81519 68.4678 6.81519H65.459V27.7898ZM88.6689 0.704834C89.7327 0.704921 90.6144 1.03908 91.3135 1.70776C92.0126 2.37645 92.3622 3.25813 92.3623 4.35229C92.3623 5.44665 92.0126 6.32903 91.3135 6.9978C90.6144 7.66644 89.7327 8.00065 88.6689 8.00073C87.6354 8.00073 86.753 7.66657 86.0234 6.9978C85.3243 6.32903 84.9746 5.44665 84.9746 4.35229C84.9747 3.25817 85.3244 2.37645 86.0234 1.70776C86.753 1.03899 87.6354 0.704834 88.6689 0.704834Z" fill="url(#paint0_linear_57_6750)"/>
<defs>
<linearGradient id="paint0_linear_57_6750" x1="225.679" y1="42.3816" x2="26.3851" y2="-51.6556" gradientUnits="userSpaceOnUse">
<stop stop-color="#8AFB33"/>
<stop offset="1" stop-color="#DAFFA7"/>
</linearGradient>
</defs>
</svg>
